<?xml version="1.0" standalone="no"?>
<!DOCTYPE svg PUBLIC "-//W3C//DTD SVG 20010904//EN"
 "http://www.w3.org/TR/2001/REC-SVG-20010904/DTD/svg10.dtd">
<svg version="1.0" xmlns="http://www.w3.org/2000/svg"
 width="200.000000pt" height="200.000000pt" viewBox="0 0 200.000000 200.000000"
 preserveAspectRatio="xMidYMid meet">

<g transform="translate(0.000000,200.000000) scale(0.100000,-0.100000)"
fill="#ffffff" stroke="none">
<path d="M987 1874 c-4 -4 -7 -76 -7 -160 l0 -153 -27 -3 -28 -3 -7 -120 c-4
-66 -12 -150 -18 -187 -10 -57 -15 -67 -33 -70 -15 -2 -23 -11 -25 -29 -2 -17
-11 -29 -23 -32 -15 -4 -19 -14 -19 -50 0 -36 -4 -46 -20 -50 -18 -5 -20 -14
-20 -110 l0 -106 -27 -3 -28 -3 -3 -135 c-1 -74 -7 -139 -12 -144 -6 -6 -10
-65 -10 -133 0 -68 -3 -123 -7 -123 -19 0 -119 91 -160 144 -159 211 -175 461
-42 682 45 74 160 182 243 229 36 20 66 41 66 46 0 48 -143 -32 -250 -140
-121 -122 -190 -284 -190 -446 0 -275 196 -534 475 -627 58 -19 90 -23 190
-22 104 0 130 4 200 28 205 71 352 219 420 420 77 229 19 471 -155 647 -107
108 -250 188 -250 140 0 -5 30 -26 66 -46 83 -47 198 -155 243 -229 133 -221
117 -471 -42 -682 -41 -53 -141 -144 -160 -144 -4 0 -7 55 -7 123 0 68 -4 127
-10 133 -5 5 -11 70 -12 144 l-3 135 -27 3 -28 3 0 106 c0 96 -2 105 -20 110
-16 4 -20 14 -20 50 0 36 -4 46 -19 50 -12 3 -21 15 -23 32 -2 18 -10 27 -25
29 -18 3 -23 13 -33 70 -6 37 -14 121 -18 187 l-7 120 -27 3 -27 3 -3 156 c-3
146 -9 178 -31 157z m-7 -524 l0 -170 -26 0 c-25 0 -26 2 -20 35 12 62 26 199
26 253 0 28 5 52 10 52 6 0 10 -63 10 -170z m60 118 c0 -54 14 -191 26 -253 6
-33 5 -35 -20 -35 l-26 0 0 170 c0 107 4 170 10 170 6 0 10 -24 10 -52z m80
-338 c0 -6 -47 -10 -120 -10 -73 0 -120 4 -120 10 0 6 47 10 120 10 73 0 120
-4 120 -10z m40 -80 l0 -30 -160 0 -160 0 0 30 0 30 160 0 160 0 0 -30z m40
-160 l0 -89 -57 -3 -58 -3 -3 -317 c-1 -198 -6 -318 -12 -318 -6 0 -11 134
-12 358 -3 309 -5 357 -18 357 -13 0 -15 -48 -18 -358 -2 -348 -3 -357 -22
-357 -19 0 -20 9 -22 358 -3 309 -5 357 -18 357 -13 0 -16 -49 -20 -360 -3
-198 -8 -353 -12 -345 -5 8 -9 152 -10 320 l-3 305 -57 3 -58 3 0 89 0 90 200
0 200 0 0 -90z m-320 -250 l0 -120 -70 0 -70 0 0 120 0 120 70 0 70 0 0 -120z
m380 0 l0 -120 -70 0 -70 0 0 120 0 120 70 0 70 0 0 -120z m-380 -314 l0 -155
-52 16 c-29 8 -65 22 -80 29 l-28 15 0 124 0 125 80 0 80 0 0 -154z m400 29
l0 -124 -27 -15 c-16 -7 -52 -21 -80 -29 l-53 -16 0 155 0 154 80 0 80 0 0
-125z"/>
<path d="M824 946 c-8 -22 3 -49 19 -43 6 2 12 14 12 27 0 27 -22 39 -31 16z"/>
<path d="M884 946 c-8 -22 3 -49 19 -43 6 2 12 14 12 27 0 27 -22 39 -31 16z"/>
<path d="M944 946 c-8 -22 3 -49 19 -43 6 2 12 14 12 27 0 27 -22 39 -31 16z"/>
<path d="M1024 946 c-8 -22 3 -49 19 -43 6 2 12 14 12 27 0 27 -22 39 -31 16z"/>
<path d="M1084 946 c-8 -22 3 -49 19 -43 6 2 12 14 12 27 0 27 -22 39 -31 16z"/>
<path d="M1144 946 c-8 -22 3 -49 19 -43 6 2 12 14 12 27 0 27 -22 39 -31 16z"/>
<path d="M824 866 c-8 -22 3 -49 19 -43 6 2 12 14 12 27 0 27 -22 39 -31 16z"/>
<path d="M884 866 c-8 -22 3 -49 19 -43 6 2 12 14 12 27 0 27 -22 39 -31 16z"/>
<path d="M1084 866 c-8 -22 3 -49 19 -43 6 2 12 14 12 27 0 27 -22 39 -31 16z"/>
<path d="M1144 866 c-8 -22 3 -49 19 -43 6 2 12 14 12 27 0 27 -22 39 -31 16z"/>
<path d="M765 727 c-3 -7 -5 -52 -3 -98 2 -67 6 -84 18 -84 12 0 15 17 15 94
0 67 -4 96 -12 98 -7 3 -15 -2 -18 -10z"/>
<path d="M825 727 c-3 -7 -5 -52 -3 -98 2 -67 6 -84 18 -84 12 0 15 17 15 94
0 67 -4 96 -12 98 -7 3 -15 -2 -18 -10z"/>
<path d="M1145 727 c-3 -7 -5 -52 -3 -98 2 -67 6 -84 18 -84 12 0 15 17 15 94
0 67 -4 96 -12 98 -7 3 -15 -2 -18 -10z"/>
<path d="M1205 727 c-3 -7 -5 -52 -3 -98 2 -67 6 -84 18 -84 12 0 15 17 15 94
0 67 -4 96 -12 98 -7 3 -15 -2 -18 -10z"/>
<path d="M765 448 c-3 -8 -4 -57 -3 -109 2 -76 6 -94 18 -94 12 0 15 18 15
104 0 75 -4 106 -12 108 -7 3 -15 -2 -18 -9z"/>
<path d="M825 448 c-3 -8 -4 -61 -3 -119 2 -84 6 -104 18 -104 12 0 15 19 15
114 0 83 -3 115 -12 118 -7 3 -15 -2 -18 -9z"/>
<path d="M1145 448 c-3 -8 -4 -61 -3 -119 2 -84 6 -104 18 -104 12 0 15 19 15
114 0 83 -3 115 -12 118 -7 3 -15 -2 -18 -9z"/>
<path d="M1205 448 c-3 -8 -4 -57 -3 -109 2 -76 6 -94 18 -94 12 0 15 18 15
104 0 75 -4 106 -12 108 -7 3 -15 -2 -18 -9z"/>
</g>
</svg>
